mtllib ./Ball_1_TOMDXIII.mtl

g s.0006
usemap Standard737373
usemtl Standard737373
v 0.11558592 0.06779343 -0.36229264
v 0.43548184 0.1299072 -0.22954938
v 0.32292412 0.04386306 -0.025017348
v 0.054669704 0.02122718 -0.25160128
v 0.6890811 0.30705104 -0.06185995
v 0.83777328 0.5722613 0.115247648
v 0.67859128 0.4505769 0.40449988
v 0.5420159 0.19462938 0.20537432
v 0.8589226 0.88516 0.27481
v 0.74930696 1.19811008 0.3925339
v 0.63674924 1.112066 0.59706596
v 0.7118574 0.7727382 0.54204424
v 0.52561896 1.46347008 0.4504996
v 0.4647027 1.416904 0.561191
v 0.29950524 0.1433816 0.4157143
v 0.13731402 0.004639864 0.13596994
v 0.4693467 0.7214905 0.7523843
v 0.41609876 0.39510756 0.6321691
v 0.36425076 1.3956764 0.648317
v 0.45113924 1.0728428 0.75805328
v -0.045782196 -00 -0.16447528
v -0.0015306476 0.161109392 0.53713824
v -0.093089072 0.018207968 0.2289042
v 0.16831072 0.7392181 0.8738082
v 0.090260712 0.41429512 0.7635986
v 0.23955702 1.4030194 0.6986129
v 0.2207361 1.086411 0.8509874
v -0.17047598 0.007342637 -0.114179352
v -0.3332082 0.082502656 0.2396352
v -0.30042722 0.04213834 -0.108371192
v -0.24931992 0.5052213 0.7787755
v -0.3152624 0.2451141 0.5511601
v -0.019383012 1.15070552 0.86171872
v -0.1454209 0.823223 0.88783008
v 0.10960578 1.437815 0.7044211
v -0.5509441 0.654042 0.67539176
v -0.5939269 0.38260664 0.45564576
v -0.23266336 1.2559374 0.788616
v -0.42408536 0.96071552 0.7923157
v -0.5464886 0.1877343 0.16653262
v -0.005820037 1.49476608 0.6648579
v -0.4158531 0.09908932 -0.147934448
v -0.79509904 0.55265476 0.26513588
v -0.70045928 0.31788376 0.020722348
v -0.62525776 1.1307636 0.6018059
v -0.76869 0.83810072 0.46918456
v -0.08914868 1.5652026 0.5859455
v -0.3866339 1.38608656 0.6428057
v -0.4991817 0.16952594 -0.22684678
v -0.718312 1.307479 0.34530412
v -0.8694126 1.0293764 0.19154998
v -0.12769342 1.6384012 0.4796985
v -0.45785496 1.5213392 0.44648756
v -0.7716801 0.4531363 -0.17559572
v -0.5377265 0.2427244 -0.3330938
v -0.8881534 0.7293705 0.008634228
v -0.74930696 0.5729004 -0.3925339
v -0.5256188 0.3075403 -0.45049956
v -0.8377731 1.198749 -0.11524758
v -0.8589226 0.88585048 -0.27480984
v -0.4354817 1.6411032 0.2295494
v -0.6890811 1.4639594 0.061860004
v -0.11558582 1.7032168 0.36229276
v -0.32292236 1.7271468 0.02501764
v -0.5420141 1.5763802 -0.20537402
v -0.71185552 0.9982716 -0.542044
v -0.63674756 0.6589438 -0.5970657
v -0.67858944 1.3204328 -0.40449964
v -0.05466961 1.7497836 0.2516014
v -0.46470264 0.3541065 -0.561191
v -0.46934496 1.04951952 -0.752384
v -0.4511391 0.69816752 -0.7580532
v -0.2995034 1.62762816 -0.4157139
v -0.4160987 1.37590304 -0.63216904
v 0.045782284 1.7710108 0.16447532
v -0.13731394 1.7663706 -0.13596986
v -0.3642507 0.3753341 -0.64831696
v 0.17047608 1.763668 0.11417944
v 0.09308916 1.7528024 -0.2289041
v -0.22073602 0.6845995 -0.8509874
v -0.2395569 0.367991 -0.6986129
v -0.090258968 1.35671488 -0.7635984
v -0.16830894 1.0317918 -0.873808
v 0.00153244992 1.60990048 -0.537138
v 0.019383102 0.62030476 -0.8617184
v -0.1096057 0.33319548 -0.7044211
v 0.24932002 1.265789 -0.7787755
v 0.145421 0.94778752 -0.88783
v 0.33320828 1.6885078 -0.23963516
v 0.31526248 1.5258962 -0.5511601
v 0.3004273 1.728872 0.10837128
v 0.42408496 0.81029424 -0.79231408
v 0.23266344 0.5150732 -0.78861592
v 0.5939264 1.38840304 -0.4556441
v 0.5509436 1.1169676 -0.6753901
v 0.41585312 1.671921 0.147934544
v 0.5464886 1.5832762 -0.16653258
v 0.0058201244 0.27624438 -0.6648578
v 0.62525724 0.6402461 -0.60180424
v 0.386634 0.3849238 -0.64280556
v 0.7950986 1.2183548 -0.26513428
v 0.7686918 0.932909 -0.4691843
v 0.4991818 1.60148448 0.2268469
v 0.70045928 1.4531268 -0.02072225
v 0.089148752 0.20580782 -0.5859454
v 0.45785504 0.2496712 -0.44648744
v 0.127693512 0.132609248 -0.4796984
v 0.8694122 0.74163328 -0.19154836
v 0.71831152 0.46353044 -0.3453025
v 0.7716803 1.317874 0.17559582
v 0.88815312 1.0416392 -0.0086325512
v 0.5377265 1.52828608 0.3330939
v 0.10960578 1.437815 0.7044211
v -0.019383012 1.15070552 0.86171872
v -0.22190816 0.13017082 -0.43987976
v -0.22190816 0.13017082 -0.43987976
v 0.22190822 1.6408398 0.43987984
v 0.22190822 1.6408398 0.43987984
v 0.22190822 1.6408398 0.43987984
v -0.22190816 0.13017082 -0.43987976
v 0.22190822 1.6408398 0.43987984
v -0.22190816 0.13017082 -0.43987976
v -0.22190816 0.13017082 -0.43987976
v 0.22190822 1.6408398 0.43987984
v 0.22190822 1.6408398 0.43987984
v -0.22190816 0.13017082 -0.43987976
v 0.22190822 1.6408398 0.43987984
v -0.22190816 0.13017082 -0.43987976
v 0.22190822 1.6408398 0.43987984
v -0.22190816 0.13017082 -0.43987976
v -0.22190816 0.13017082 -0.43987976
v 0.22190822 1.6408398 0.43987984
v 0.22190822 1.6408398 0.43987984
v -0.22190816 0.13017082 -0.43987976
v 0.22190822 1.6408398 0.43987984
v -0.22190816 0.13017082 -0.43987976
v 0.22190822 1.6408398 0.43987984
v -0.22190816 0.13017082 -0.43987976
v -0.22190816 0.13017082 -0.43987976
v 0.22190822 1.6408398 0.43987984
v 0.22190822 1.6408398 0.43987984
v -0.22190816 0.13017082 -0.43987976
v 0.22190822 1.6408398 0.43987984
v -0.22190816 0.13017082 -0.43987976
v -0.22190816 0.13017082 -0.43987976
v 0.22190822 1.6408398 0.43987984
v -0.3152624 0.2451141 0.5511601
v -0.24931992 0.5052213 0.7787755
v -0.1454209 0.823223 0.88783008
v -0.019383012 1.15070552 0.86171872
v -0.3332082 0.082502656 0.2396352
v 0.10960578 1.437815 0.7044211
v -0.30042722 0.04213834 -0.108371192
v 0.22190822 1.6408398 0.43987984
v 0.22190822 1.6408398 0.43987984
v -0.22190816 0.13017082 -0.43987976
v 0.22190822 1.6408398 0.43987984
v 0.22190822 1.6408398 0.43987984
v -0.22190816 0.13017082 -0.43987976
v -0.22190816 0.13017082 -0.43987976
v -0.22190816 0.13017082 -0.43987976
v -0.22190816 0.13017082 -0.43987976
v -0.22190816 0.13017082 -0.43987976
v 0.22190822 1.6408398 0.43987984
v -0.22190816 0.13017082 -0.43987976
v -0.22190816 0.13017082 -0.43987976
v 0.22190822 1.6408398 0.43987984
v 0.22190822 1.6408398 0.43987984
v -0.22190816 0.13017082 -0.43987976
v -0.22190816 0.13017082 -0.43987976
v 0.22190822 1.6408398 0.43987984
v 0.22190822 1.6408398 0.43987984
v 0.22190822 1.6408398 0.43987984
v 0.22190822 1.6408398 0.43987984
v 0.22190822 1.6408398 0.43987984
v -0.22190816 0.13017082 -0.43987976
v -0.22190816 0.13017082 -0.43987976
v -0.22190816 0.13017082 -0.43987976
v 0.22190822 1.6408398 0.43987984

vn 0.128170392 -0.906741 -0.40173776
vn 0.48289624 -0.8378661 -0.2545422
vn 0.35808304 -0.93327752 -0.027741136
vn 0.060621824 -0.9583772 -0.27899476
vn 0.76410552 -0.6414338 -0.06859501
vn 0.92898712 -0.34734876 0.12779542
vn 0.7524734 -0.48228156 0.4485403
vn 0.6010281 -0.7660955 0.2277346
vn 0.95243872 -0.00038293004 0.3047302
vn 0.83089 0.34664076 0.4352722
vn 0.7060766 0.25122812 0.66207276
vn 0.78936128 -0.12504464 0.6010597
vn 0.5828462 0.6408916 0.4995482
vn 0.51529776 0.5892553 0.62229124
vn 0.33211402 -0.8229228 0.4609754
vn 0.15226436 -0.9767716 0.150773984
vn 0.5204472 -0.18187202 0.8343006
vn 0.4614028 -0.543791 0.70099848
vn 0.40390904 0.5657166 0.71890344
vn 0.500258 0.20773444 0.840588
vn -0.05076687 -0.98191608 -0.18238268
vn -0.001697365 -0.80326496 0.59561944
vn -0.10322438 -0.96172592 0.25382656
vn 0.18663562 -0.1622142 0.9689446
vn 0.100087888 -0.5225136 0.84673608
vn 0.26563902 0.5738591 0.7746751
vn 0.24476916 0.22277972 0.9436406
vn -0.18903688 -0.97377352 -0.12661082
vn -0.3694873 -0.89043192 0.2657262
vn -0.3331366 -0.9351894 -0.12017026
vn -0.27646512 -0.42168796 0.863566
vn -0.34958696 -0.71011424 0.61116824
vn -0.021493438 0.294075 0.9555406
vn -0.161253888 -0.069063328 0.9844934
vn 0.1215392 0.6124431 0.7811157
vn -0.6109287 -0.25666404 0.7489257
vn -0.658591 -0.55765196 0.50525444
vn -0.25799512 0.4107636 0.87447808
vn -0.470258 0.083398744 0.8785796
vn -0.6059885 -0.7737421 0.18466418
vn -0.006453762 0.67559472 0.737245
vn -0.4611296 -0.87203792 -0.16404106
vn -0.88166608 -0.3690898 0.29400272
vn -0.7767234 -0.6294226 0.02297848
vn -0.6933331 0.27196102 0.6673278
vn -0.85238352 -0.052565724 0.52026844
vn -0.098854912 0.7537003 0.6497412
vn -0.4287296 0.5550835 0.7127925
vn -0.5535308 -0.79393248 -0.25154508
vn -0.7965188 0.4679167 0.3828993
vn -0.9640708 0.1595353 0.21240518
vn -0.1415962 0.83486824 0.5319262
vn -0.50770496 0.7050616 0.4950997
vn -0.8556984 -0.47944404 -0.19471412
vn -0.59627224 -0.71276424 -0.3693598
vn -0.9848518 -0.17313402 0.0095742952
vn -0.83089 -0.34664076 -0.4352722
vn -0.5828462 -0.6408916 -0.4995482
vn -0.92898712 0.34734876 -0.12779542
vn -0.95243872 0.00038293004 -0.3047302
vn -0.48289624 0.8378661 0.2545422
vn -0.76410552 0.6414338 0.06859501
vn -0.128170392 0.906741 0.40173776
vn -0.3580817 0.93327808 0.02774141
vn -0.6010274 0.76609592 -0.22773478
vn -0.78936072 0.12504414 -0.6010605
vn -0.7060757 -0.2512292 -0.6620734
vn -0.7524728 0.4822817 -0.4485408
vn -0.060621824 0.9583772 0.27899476
vn -0.51529776 -0.5892553 -0.62229124
vn -0.5204459 0.1818716 -0.8343014
vn -0.500258 -0.20773444 -0.840588
vn -0.33211264 0.82292304 -0.4609758
vn -0.4614028 0.543791 -0.70099848
vn 0.05076687 0.98191608 0.18238268
vn -0.15226436 0.9767716 -0.150773984
vn -0.40390904 -0.5657166 -0.71890344
vn 0.18903688 0.97377352 0.12661082
vn 0.10322438 0.96172592 -0.25382656
vn -0.24476916 -0.22277972 -0.9436406
vn -0.26563902 -0.5738591 -0.7746751
vn -0.100086112 0.5225132 -0.8467366
vn -0.18663392 0.1622136 -0.9689452
vn 0.0016992414 0.80326472 -0.59561976
vn 0.021493438 -0.294075 -0.9555406
vn -0.1215392 -0.6124431 -0.7811157
vn 0.27646512 0.42168796 -0.863566
vn 0.161253888 0.069063328 -0.9844934
vn 0.3694873 0.89043192 -0.2657262
vn 0.34958696 0.71011424 -0.61116824
vn 0.3331366 0.9351894 0.12017026
vn 0.47025824 -0.08339975 -0.87857928
vn 0.25799512 -0.4107636 -0.87447808
vn 0.65859156 0.55765224 -0.5052537
vn 0.6109293 0.2566637 -0.74892528
vn 0.4611296 0.87203792 0.16404106
vn 0.6059885 0.7737421 -0.18466418
vn 0.006453762 -0.67559472 -0.737245
vn 0.69333344 -0.27196216 -0.667327
vn 0.4287296 -0.5550835 -0.7127925
vn 0.8816668 0.3690894 -0.2940015
vn 0.8523842 0.052564944 -0.5202675
vn 0.5535308 0.79393248 0.25154508
vn 0.7767234 0.6294226 -0.02297848
vn 0.098854912 -0.7537003 -0.6497412
vn 0.50770496 -0.7050616 -0.4950997
vn 0.1415962 -0.83486824 -0.5319262
vn 0.96407112 -0.159536256 -0.21240352
vn 0.7965187 -0.46791796 -0.3828978
vn 0.8556984 0.47944404 0.19471412
vn 0.98485192 0.17313332 -0.009572514
vn 0.59627224 0.71276424 0.3693598
vn 0.1215392 0.6124431 0.7811157
vn -0.021493438 0.294075 0.9555406
vn -0.24606884 -0.83757272 -0.4877725
vn -0.24606884 -0.83757272 -0.4877725
vn 0.24606884 0.83757272 0.4877725
vn 0.24606884 0.83757272 0.4877725
vn 0.24606884 0.83757272 0.4877725
vn -0.24606884 -0.83757272 -0.4877725
vn 0.24606884 0.83757272 0.4877725
vn -0.24606884 -0.83757272 -0.4877725
vn -0.24606884 -0.83757272 -0.4877725
vn 0.24606884 0.83757272 0.4877725
vn 0.24606884 0.83757272 0.4877725
vn -0.24606884 -0.83757272 -0.4877725
vn 0.24606884 0.83757272 0.4877725
vn -0.24606884 -0.83757272 -0.4877725
vn 0.24606884 0.83757272 0.4877725
vn -0.24606884 -0.83757272 -0.4877725
vn -0.24606884 -0.83757272 -0.4877725
vn 0.24606884 0.83757272 0.4877725
vn 0.24606884 0.83757272 0.4877725
vn -0.24606884 -0.83757272 -0.4877725
vn 0.24606884 0.83757272 0.4877725
vn -0.24606884 -0.83757272 -0.4877725
vn 0.24606884 0.83757272 0.4877725
vn -0.24606884 -0.83757272 -0.4877725
vn -0.24606884 -0.83757272 -0.4877725
vn 0.24606884 0.83757272 0.4877725
vn 0.24606884 0.83757272 0.4877725
vn -0.24606884 -0.83757272 -0.4877725
vn 0.24606884 0.83757272 0.4877725
vn -0.24606884 -0.83757272 -0.4877725
vn -0.24606884 -0.83757272 -0.4877725
vn 0.24606884 0.83757272 0.4877725
vn -0.34958696 -0.71011424 0.61116824
vn -0.27646512 -0.42168796 0.863566
vn -0.161253888 -0.069063328 0.9844934
vn -0.021493438 0.294075 0.9555406
vn -0.3694873 -0.89043192 0.2657262
vn 0.1215392 0.6124431 0.7811157
vn -0.3331366 -0.9351894 -0.12017026
vn 0.24606884 0.83757272 0.4877725
vn 0.24606884 0.83757272 0.4877725
vn -0.24606884 -0.83757272 -0.4877725
vn 0.24606884 0.83757272 0.4877725
vn 0.24606884 0.83757272 0.4877725
vn -0.24606884 -0.83757272 -0.4877725
vn -0.24606884 -0.83757272 -0.4877725
vn -0.24606884 -0.83757272 -0.4877725
vn -0.24606884 -0.83757272 -0.4877725
vn -0.24606884 -0.83757272 -0.4877725
vn 0.24606884 0.83757272 0.4877725
vn -0.24606884 -0.83757272 -0.4877725
vn -0.24606884 -0.83757272 -0.4877725
vn 0.24606884 0.83757272 0.4877725
vn 0.24606884 0.83757272 0.4877725
vn -0.24606884 -0.83757272 -0.4877725
vn -0.24606884 -0.83757272 -0.4877725
vn 0.24606884 0.83757272 0.4877725
vn 0.24606884 0.83757272 0.4877725
vn 0.24606884 0.83757272 0.4877725
vn 0.24606884 0.83757272 0.4877725
vn 0.24606884 0.83757272 0.4877725
vn -0.24606884 -0.83757272 -0.4877725
vn -0.24606884 -0.83757272 -0.4877725
vn -0.24606884 -0.83757272 -0.4877725
vn 0.24606884 0.83757272 0.4877725

vt 0.25 0.095151992
vt 0.25 0.230102
vt 0.1875 0.230102
vt 0.1875 0.095151992
vt 0.25 0.365051
vt 0.25 0.5
vt 0.1875 0.5
vt 0.1875 0.365051
vt 0.25 0.634949
vt 0.25 0.769898
vt 0.1875 0.769898
vt 0.1875 0.634949
vt 0.25 0.90484808
vt 0.1875 0.90484808
vt 0.125 0.365051
vt 0.125 0.230102
vt 0.125 0.634949
vt 0.125 0.5
vt 0.125 0.90484808
vt 0.125 0.769898
vt 0.125 0.095151992
vt 0.0625 0.365051
vt 0.0625 0.230102
vt 0.0625 0.634949
vt 0.0625 0.5
vt 0.0625 0.90484808
vt 0.0625 0.769898
vt 0.0625 0.095151992
vt 00 0.230102
vt 00 0.095151992
vt 00 0.5
vt 00 0.365051
vt 00 0.769898
vt 00 0.634949
vt 00 0.90484808
vt 0.9375 0.5
vt 0.9375 0.365051
vt 0.9375 0.769898
vt 0.9375 0.634949
vt 0.9375 0.230102
vt 0.9375 0.90484808
vt 0.9375 0.095151992
vt 0.875 0.365051
vt 0.875 0.230102
vt 0.875 0.634949
vt 0.875 0.5
vt 0.875 0.90484808
vt 0.875 0.769898
vt 0.875 0.095151992
vt 0.8125 0.634949
vt 0.8125 0.5
vt 0.8125 0.90484808
vt 0.8125 0.769898
vt 0.8125 0.230102
vt 0.8125 0.095151992
vt 0.8125 0.365051
vt 0.75 0.230102
vt 0.75 0.095151992
vt 0.75 0.5
vt 0.75 0.365051
vt 0.75 0.769898
vt 0.75 0.634949
vt 0.75 0.90484808
vt 0.6875 0.769899
vt 0.6875 0.634949
vt 0.6875 0.36505
vt 0.6875 0.23010102
vt 0.6875 0.5
vt 0.6875 0.90484808
vt 0.6875 0.095151992
vt 0.625 0.36505
vt 0.625 0.230102
vt 0.625 0.634949
vt 0.625 0.5
vt 0.625 0.90484808
vt 0.625 0.769898
vt 0.625 0.095151992
vt 0.5625 0.90484808
vt 0.5625 0.769898
vt 0.5625 0.230102
vt 0.5625 0.095151992
vt 0.5625 0.5
vt 0.5625 0.365051
vt 0.5625 0.634949
vt 0.5 0.23010102
vt 0.5 0.095151992
vt 0.5 0.5
vt 0.5 0.365051
vt 0.5 0.769898
vt 0.5 0.634949
vt 0.5 0.90484808
vt 0.4375 0.36505
vt 0.4375 0.230102
vt 0.4375 0.634949
vt 0.4375 0.5
vt 0.4375 0.90484808
vt 0.4375 0.769898
vt 0.4375 0.095151992
vt 0.375 0.36505
vt 0.375 0.230102
vt 0.375 0.634949
vt 0.375 0.5
vt 0.375 0.90484808
vt 0.375 0.769898
vt 0.375 0.095151992
vt 0.3125 0.230102
vt 0.3125 0.095151992
vt 0.3125 0.5
vt 0.3125 0.365051
vt 0.3125 0.769898
vt 0.3125 0.634949
vt 0.3125 0.90484808
vt 00 00
vt 00 00
vt 0.25 00
vt 0.1875 00
vt 0.25 01
vt 0.1875 01
vt 0.125 01
vt 0.125 00
vt 0.0625 01
vt 0.0625 00
vt 00 00
vt 01 01
vt 0.9375 01
vt 0.9375 00
vt 0.875 01
vt 0.875 00
vt 0.8125 01
vt 0.8125 00
vt 0.75 00
vt 0.75 01
vt 0.6875 01
vt 0.6875 00
vt 0.625 01
vt 0.625 00
vt 0.5625 01
vt 0.5625 00
vt 0.5 00
vt 0.5 01
vt 0.4375 01
vt 0.4375 00
vt 0.375 01
vt 0.375 00
vt 0.3125 00
vt 0.3125 01
vt 01 0.365051
vt 01 0.5
vt 01 0.634949
vt 01 0.769898
vt 01 0.230102
vt 01 0.90484808
vt 01 0.095151992
vt 00 01
vt 0.0625 01
vt 0.4375 00
vt 0.125 01
vt 0.1875 01
vt 0.125 00
vt 0.0625 00
vt 0.1875 00
vt 0.875 00
vt 0.6875 00
vt 0.8125 01
vt 01 00
vt 0.9375 00
vt 0.6875 01
vt 0.625 01
vt 0.625 00
vt 0.5625 00
vt 0.3125 01
vt 0.375 01
vt 0.4375 01
vt 0.875 01
vt 0.9375 01
vt 0.375 00
vt 0.3125 00
vt 0.8125 00
vt 0.5625 01

usemap Standard737373
usemtl Standard737373
f  3/3/3 4/4/4 1/1/1 
f  2/2/2 3/3/3 1/1/1 
f  8/8/8 3/3/3 2/2/2 
f  5/5/5 8/8/8 2/2/2 
f  7/7/7 8/8/8 5/5/5 
f  6/6/6 7/7/7 5/5/5 
f  12/12/12 7/7/7 6/6/6 
f  9/9/9 12/12/12 6/6/6 
f  11/11/11 12/12/12 9/9/9 
f  10/10/10 11/11/11 9/9/9 
f  14/14/14 11/11/11 10/10/10 
f  13/13/13 14/14/14 10/10/10 
f  8/8/8 15/15/15 3/3/3 
f  15/15/15 16/16/16 3/3/3 
f  3/3/3 16/16/16 4/4/4 
f  12/12/12 17/17/17 7/7/7 
f  17/17/17 18/18/18 7/7/7 
f  18/18/18 15/15/15 8/8/8 
f  7/7/7 18/18/18 8/8/8 
f  14/14/14 19/19/19 11/11/11 
f  19/19/19 20/20/20 11/11/11 
f  20/20/20 17/17/17 12/12/12 
f  11/11/11 20/20/20 12/12/12 
f  15/15/15 22/22/22 16/16/16 
f  22/22/22 23/23/23 16/16/16 
f  17/17/17 24/24/24 18/18/18 
f  24/24/24 25/25/25 18/18/18 
f  25/25/25 22/22/22 15/15/15 
f  18/18/18 25/25/25 15/15/15 
f  19/19/19 26/26/26 20/20/20 
f  26/26/26 27/27/27 20/20/20 
f  27/27/27 24/24/24 17/17/17 
f  20/20/20 27/27/27 17/17/17 
f  16/16/16 23/23/23 21/21/21 
f  16/16/16 21/21/21 4/4/4 
f  23/23/23 28/28/28 21/21/21 
f  23/23/23 29/29/29 28/28/28 
f  29/29/29 30/30/30 28/28/28 
f  25/25/25 31/31/31 22/22/22 
f  31/31/31 32/32/32 22/22/22 
f  32/32/32 29/29/29 23/23/23 
f  22/22/22 32/32/32 23/23/23 
f  27/27/27 33/33/33 24/24/24 
f  33/33/33 34/34/34 24/24/24 
f  34/34/34 31/31/31 25/25/25 
f  24/24/24 34/34/34 25/25/25 
f  35/35/35 33/33/33 27/27/27 
f  26/26/26 35/35/35 27/27/27 
f  30/30/30 123/123/123 28/28/28 
f  123/123/123 122/122/122 28/28/28 
f  21/21/21 120/120/120 4/4/4 
f  120/120/120 116/116/116 4/4/4 
f  26/26/26 155/155/155 35/35/35 
f  155/155/155 154/154/154 35/35/35 
f  119/119/119 121/121/121 26/26/26 
f  19/19/19 119/119/119 26/26/26 
f  158/158/158 157/157/157 19/19/19 
f  14/14/14 158/158/158 19/19/19 
f  117/117/117 118/118/118 14/14/14 
f  13/13/13 117/117/117 14/14/14 
f  146/146/146 117/117/117 13/13/13 
f  112/112/112 146/146/146 13/13/13 
f  112/112/112 13/13/13 110/110/110 
f  112/112/112 110/110/110 104/104/104 
f  104/104/104 110/110/110 101/101/101 
f  104/104/104 101/101/101 94/94/94 
f  94/94/94 101/101/101 95/95/95 
f  94/94/94 95/95/95 87/87/87 
f  90/90/90 94/94/94 87/87/87 
f  90/90/90 87/87/87 82/82/82 
f  82/82/82 87/87/87 83/83/83 
f  82/82/82 83/83/83 71/71/71 
f  74/74/74 82/82/82 71/71/71 
f  74/74/74 71/71/71 66/66/66 
f  66/66/66 71/71/71 67/67/67 
f  66/66/66 67/67/67 57/57/57 
f  60/60/60 66/66/66 57/57/57 
f  60/60/60 57/57/57 54/54/54 
f  54/54/54 57/57/57 55/55/55 
f  54/54/54 55/55/55 49/49/49 
f  44/44/44 54/54/54 49/49/49 
f  44/44/44 49/49/49 42/42/42 
f  40/40/40 44/44/44 42/42/42 
f  40/40/40 42/42/42 153/153/153 
f  151/151/151 40/40/40 153/153/153 
f  37/37/37 40/40/40 151/151/151 
f  147/147/147 37/37/37 151/151/151 
f  36/36/36 37/37/37 147/147/147 
f  148/148/148 36/36/36 147/147/147 
f  39/39/39 36/36/36 148/148/148 
f  149/149/149 39/39/39 148/148/148 
f  38/38/38 39/39/39 149/149/149 
f  150/150/150 38/38/38 149/149/149 
f  41/41/41 38/38/38 150/150/150 
f  152/152/152 41/41/41 150/150/150 
f  43/43/43 44/44/44 40/40/40 
f  37/37/37 43/43/43 40/40/40 
f  39/39/39 45/45/45 36/36/36 
f  45/45/45 46/46/46 36/36/36 
f  46/46/46 43/43/43 37/37/37 
f  36/36/36 46/46/46 37/37/37 
f  41/41/41 47/47/47 38/38/38 
f  47/47/47 48/48/48 38/38/38 
f  48/48/48 45/45/45 39/39/39 
f  38/38/38 48/48/48 39/39/39 
f  45/45/45 50/50/50 46/46/46 
f  50/50/50 51/51/51 46/46/46 
f  46/46/46 51/51/51 43/43/43 
f  47/47/47 52/52/52 48/48/48 
f  52/52/52 53/53/53 48/48/48 
f  53/53/53 50/50/50 45/45/45 
f  48/48/48 53/53/53 45/45/45 
f  51/51/51 56/56/56 43/43/43 
f  43/43/43 56/56/56 44/44/44 
f  56/56/56 54/54/54 44/44/44 
f  51/51/51 59/59/59 56/56/56 
f  59/59/59 60/60/60 56/56/56 
f  56/56/56 60/60/60 54/54/54 
f  53/53/53 61/61/61 50/50/50 
f  61/61/61 62/62/62 50/50/50 
f  62/62/62 59/59/59 51/51/51 
f  50/50/50 62/62/62 51/51/51 
f  63/63/63 61/61/61 53/53/53 
f  52/52/52 63/63/63 53/53/53 
f  61/61/61 64/64/64 62/62/62 
f  64/64/64 65/65/65 62/62/62 
f  62/62/62 65/65/65 59/59/59 
f  65/65/65 68/68/68 59/59/59 
f  59/59/59 68/68/68 60/60/60 
f  69/69/69 64/64/64 61/61/61 
f  63/63/63 69/69/69 61/61/61 
f  68/68/68 66/66/66 60/60/60 
f  65/65/65 73/73/73 68/68/68 
f  73/73/73 74/74/74 68/68/68 
f  68/68/68 74/74/74 66/66/66 
f  69/69/69 75/75/75 64/64/64 
f  75/75/75 76/76/76 64/64/64 
f  76/76/76 73/73/73 65/65/65 
f  64/64/64 76/76/76 65/65/65 
f  75/75/75 78/78/78 76/76/76 
f  78/78/78 79/79/79 76/76/76 
f  76/76/76 79/79/79 73/73/73 
f  79/79/79 84/84/84 73/73/73 
f  73/73/73 84/84/84 74/74/74 
f  84/84/84 82/82/82 74/74/74 
f  79/79/79 89/89/89 84/84/84 
f  89/89/89 90/90/90 84/84/84 
f  84/84/84 90/90/90 82/82/82 
f  91/91/91 89/89/89 79/79/79 
f  78/78/78 91/91/91 79/79/79 
f  91/91/91 96/96/96 89/89/89 
f  96/96/96 97/97/97 89/89/89 
f  89/89/89 97/97/97 90/90/90 
f  97/97/97 94/94/94 90/90/90 
f  96/96/96 103/103/103 97/97/97 
f  103/103/103 104/104/104 97/97/97 
f  97/97/97 104/104/104 94/94/94 
f  103/103/103 112/112/112 104/104/104 
f  75/75/75 168/168/168 78/78/78 
f  168/168/168 137/137/137 78/78/78 
f  103/103/103 143/143/143 112/112/112 
f  143/143/143 171/171/171 112/112/112 
f  91/91/91 140/140/140 96/96/96 
f  140/140/140 141/141/141 96/96/96 
f  96/96/96 173/173/173 103/103/103 
f  173/173/173 172/172/172 103/103/103 
f  179/179/179 140/140/140 91/91/91 
f  78/78/78 179/179/179 91/91/91 
f  57/57/57 58/58/58 55/55/55 
f  57/57/57 67/67/67 58/58/58 
f  67/67/67 70/70/70 58/58/58 
f  67/67/67 72/72/72 70/70/70 
f  71/71/71 72/72/72 67/67/67 
f  72/72/72 77/77/77 70/70/70 
f  72/72/72 80/80/80 77/77/77 
f  80/80/80 81/81/81 77/77/77 
f  83/83/83 80/80/80 72/72/72 
f  71/71/71 83/83/83 72/72/72 
f  80/80/80 85/85/85 81/81/81 
f  85/85/85 86/86/86 81/81/81 
f  88/88/88 85/85/85 80/80/80 
f  83/83/83 88/88/88 80/80/80 
f  87/87/87 88/88/88 83/83/83 
f  88/88/88 92/92/92 85/85/85 
f  92/92/92 93/93/93 85/85/85 
f  85/85/85 93/93/93 86/86/86 
f  93/93/93 98/98/98 86/86/86 
f  95/95/95 92/92/92 88/88/88 
f  87/87/87 95/95/95 88/88/88 
f  92/92/92 99/99/99 93/93/93 
f  99/99/99 100/100/100 93/93/93 
f  93/93/93 100/100/100 98/98/98 
f  100/100/100 105/105/105 98/98/98 
f  102/102/102 99/99/99 92/92/92 
f  95/95/95 102/102/102 92/92/92 
f  101/101/101 102/102/102 95/95/95 
f  100/100/100 106/106/106 105/105/105 
f  106/106/106 107/107/107 105/105/105 
f  102/102/102 108/108/108 99/99/99 
f  108/108/108 109/109/109 99/99/99 
f  109/109/109 106/106/106 100/100/100 
f  99/99/99 109/109/109 100/100/100 
f  111/111/111 108/108/108 102/102/102 
f  101/101/101 111/111/111 102/102/102 
f  110/110/110 111/111/111 101/101/101 
f  108/108/108 6/6/6 109/109/109 
f  6/6/6 5/5/5 109/109/109 
f  109/109/109 5/5/5 106/106/106 
f  110/110/110 10/10/10 111/111/111 
f  10/10/10 9/9/9 111/111/111 
f  9/9/9 6/6/6 108/108/108 
f  111/111/111 9/9/9 108/108/108 
f  5/5/5 2/2/2 106/106/106 
f  106/106/106 2/2/2 107/107/107 
f  13/13/13 10/10/10 110/110/110 
f  2/2/2 1/1/1 107/107/107 
f  1/1/1 115/115/115 107/107/107 
f  115/115/115 145/145/145 107/107/107 
f  161/161/161 115/115/115 1/1/1 
f  4/4/4 161/161/161 1/1/1 
f  107/107/107 177/177/177 105/105/105 
f  177/177/177 176/176/176 105/105/105 
f  105/105/105 144/144/144 98/98/98 
f  144/144/144 156/156/156 98/98/98 
f  98/98/98 142/142/142 86/86/86 
f  142/142/142 139/139/139 86/86/86 
f  86/86/86 139/139/139 81/81/81 
f  139/139/139 138/138/138 81/81/81 
f  81/81/81 170/170/170 77/77/77 
f  170/170/170 169/169/169 77/77/77 
f  77/77/77 136/136/136 70/70/70 
f  136/136/136 134/134/134 70/70/70 
f  70/70/70 163/163/163 58/58/58 
f  163/163/163 131/131/131 58/58/58 
f  58/58/58 131/131/131 55/55/55 
f  131/131/131 178/178/178 55/55/55 
f  55/55/55 130/130/130 49/49/49 
f  130/130/130 128/128/128 49/49/49 
f  49/49/49 162/162/162 42/42/42 
f  162/162/162 126/126/126 42/42/42 
f  42/42/42 166/166/166 153/153/153 
f  166/166/166 165/165/165 153/153/153 
f  132/132/132 133/133/133 69/69/69 
f  63/63/63 132/132/132 69/69/69 
f  164/164/164 132/132/132 63/63/63 
f  52/52/52 164/164/164 63/63/63 
f  127/127/127 129/129/129 52/52/52 
f  47/47/47 127/127/127 52/52/52 
f  69/69/69 167/167/167 75/75/75 
f  167/167/167 135/135/135 75/75/75 
f  175/175/175 174/174/174 47/47/47 
f  41/41/41 175/175/175 47/47/47 
f  124/124/124 125/125/125 41/41/41 
f  152/152/152 124/124/124 41/41/41 
f  160/160/160 159/159/159 21/21/21 
f  28/28/28 160/160/160 21/21/21 
